<?xml version="1.0" standalone="no"?>
<!DOCTYPE svg PUBLIC "-//W3C//DTD SVG 20010904//EN"
 "http://www.w3.org/TR/2001/REC-SVG-20010904/DTD/svg10.dtd">
<svg version="1.0" xmlns="http://www.w3.org/2000/svg"
 width="512.000000pt" height="512.000000pt" viewBox="0 0 512.000000 512.000000"
 preserveAspectRatio="xMidYMid meet">
<metadata>
Created by potrace 1.16, written by Peter Selinger 2001-2019
</metadata>
<g transform="translate(0.000000,512.000000) scale(0.100000,-0.100000)"
fill="#000000" stroke="none">
<path d="M2310 5054 c-604 -72 -1109 -312 -1520 -724 -311 -311 -530 -685
-645 -1105 -60 -220 -77 -343 -82 -610 -7 -340 24 -555 123 -855 48 -144 171
-407 250 -530 207 -324 499 -614 814 -806 216 -131 467 -236 702 -294 233 -57
309 -65 613 -65 248 0 295 3 408 23 270 49 501 126 731 245 249 129 432 262
626 457 205 204 335 385 471 655 128 254 206 510 244 798 20 156 20 478 0 634
-73 557 -319 1057 -715 1453 -311 312 -685 530 -1105 645 -230 63 -341 77
-625 80 -140 2 -271 1 -290 -1z m-270 -1199 c18 -19 20 -26 9 -29 -265 -85
-396 -137 -539 -213 -89 -48 -246 -148 -254 -162 -3 -4 50 15 117 44 377 162
812 255 1187 255 237 0 522 -41 775 -110 150 -41 397 -131 489 -177 69 -35 50
-15 -46 49 -170 112 -355 199 -591 278 l-128 42 23 25 c22 24 26 25 110 19
241 -16 541 -122 771 -272 l89 -57 78 -161 c212 -434 347 -895 395 -1350 8
-80 15 -190 15 -245 l0 -99 -64 -59 c-177 -166 -360 -271 -589 -337 -93 -27
-278 -56 -357 -56 l-49 0 -73 88 c-87 102 -138 168 -138 175 0 3 30 15 68 27
171 55 349 160 457 271 l60 61 -55 -32 c-119 -69 -341 -171 -465 -213 -264
-90 -441 -117 -766 -117 -246 0 -359 10 -532 46 -212 45 -485 152 -705 278
-55 32 -61 33 -47 13 19 -30 105 -104 180 -154 80 -54 202 -114 300 -148 44
-15 82 -29 84 -31 4 -4 -35 -54 -143 -183 l-70 -84 -96 7 c-333 23 -615 142
-865 363 l-90 79 1 155 c2 358 106 833 278 1269 21 52 75 171 119 264 l82 168
71 49 c242 163 584 282 825 288 47 1 59 -3 79 -24z"/>
<path d="M1843 2700 c-79 -26 -161 -99 -199 -177 -39 -79 -45 -194 -14 -276
31 -83 86 -146 161 -187 60 -33 70 -35 159 -35 89 0 99 2 158 34 117 63 173
154 180 291 3 70 0 95 -18 142 -63 169 -257 263 -427 208z"/>
<path d="M3104 2710 c-110 -23 -215 -113 -254 -218 -18 -47 -21 -72 -18 -142
7 -137 63 -228 180 -291 59 -32 69 -34 158 -34 84 0 101 3 148 28 70 37 128
97 161 166 22 48 26 69 26 151 0 84 -3 102 -28 152 -68 139 -228 219 -373 188z"/>
</g>
</svg>
