<?xml version="1.0" standalone="no"?>
<!DOCTYPE svg PUBLIC "-//W3C//DTD SVG 20010904//EN"
 "http://www.w3.org/TR/2001/REC-SVG-20010904/DTD/svg10.dtd">
<svg version="1.0" xmlns="http://www.w3.org/2000/svg"
 width="512.000000pt" height="512.000000pt" viewBox="0 0 512.000000 512.000000"
 preserveAspectRatio="xMidYMid meet">
<metadata>
Created by potrace 1.16, written by Peter Selinger 2001-2019
</metadata>
<g transform="translate(0.000000,512.000000) scale(0.100000,-0.100000)"
fill="#000000" stroke="none">
<path d="M2355 5064 c-532 -56 -968 -228 -1375 -542 -103 -80 -345 -319 -424
-419 -280 -357 -461 -770 -531 -1213 -23 -141 -31 -520 -15 -659 69 -603 309
-1113 724 -1540 254 -260 592 -481 926 -605 168 -63 302 -45 393 53 72 77 79
114 75 404 -3 265 -6 278 -67 330 -41 34 -92 41 -179 22 -40 -8 -110 -14 -155
-14 l-82 2 96 8 c216 18 365 86 385 177 30 139 35 148 130 281 53 75 24 195
-58 234 -18 8 -84 23 -146 32 -490 71 -741 280 -827 688 -25 113 -37 336 -25
427 20 149 78 283 175 403 69 85 75 115 47 227 -11 47 -24 111 -28 142 -6 59
12 224 26 233 11 7 171 -50 245 -87 33 -17 98 -55 145 -86 103 -67 138 -73
260 -44 315 75 681 75 975 0 120 -30 165 -23 260 41 141 94 380 196 396 169
29 -47 28 -237 -2 -361 -26 -109 -22 -147 21 -203 159 -208 201 -323 201 -552
0 -305 -68 -533 -207 -697 -133 -156 -314 -241 -629 -295 l-170 -29 -37 -39
c-67 -73 -64 -148 13 -247 98 -128 93 -98 99 -605 6 -490 4 -478 70 -554 84
-95 227 -122 372 -70 856 308 1493 1071 1655 1984 31 176 43 531 23 702 -47
417 -183 795 -408 1138 -413 631 -1063 1043 -1807 1146 -99 14 -463 26 -540
18z"/>
</g>
</svg>
