<?xml version="1.0" standalone="no"?>
<!DOCTYPE svg PUBLIC "-//W3C//DTD SVG 20010904//EN"
 "http://www.w3.org/TR/2001/REC-SVG-20010904/DTD/svg10.dtd">
<svg version="1.0" xmlns="http://www.w3.org/2000/svg"
 width="512.000000pt" height="512.000000pt" viewBox="0 0 512.000000 512.000000"
 preserveAspectRatio="xMidYMid meet">
<metadata>
Created by potrace 1.16, written by Peter Selinger 2001-2019
</metadata>
<g transform="translate(0.000000,512.000000) scale(0.100000,-0.100000)"
fill="#000000" stroke="none">
<path d="M1879 5097 c-120 -50 -190 -115 -242 -225 l-32 -67 0 -751 0 -750 37
-75 c80 -161 217 -249 389 -249 l77 0 4 -187 c3 -170 5 -193 26 -237 37 -80
85 -132 160 -168 60 -30 75 -33 157 -33 82 0 97 3 148 30 32 17 206 156 391
312 l334 283 734 2 734 3 75 37 c93 46 158 112 202 206 l32 67 0 756 0 755
-37 75 c-46 93 -112 158 -206 202 l-67 32 -1430 2 -1430 3 -56 -23z m2906
-175 c64 -29 91 -55 123 -117 l27 -50 0 -705 c0 -669 -1 -707 -19 -740 -36
-69 -69 -103 -125 -129 l-56 -26 -740 -3 -740 -3 -40 -32 c-22 -17 -185 -154
-362 -304 -177 -149 -332 -274 -344 -278 -74 -24 -163 11 -202 80 -8 13 -14
103 -17 252 -6 294 6 275 -183 284 -176 8 -229 32 -292 130 -44 68 -46 114
-43 814 l3 660 24 45 c41 79 92 119 178 139 22 5 625 8 1398 8 l1360 -2 50
-23z"/>
<path d="M2306 4426 c-232 -98 -282 -402 -93 -571 132 -119 338 -112 466 16
69 69 96 136 96 239 0 71 -4 94 -27 142 -31 68 -96 133 -164 168 -73 37 -197
40 -278 6z m197 -160 c49 -20 95 -78 102 -129 15 -100 -68 -197 -167 -197 -48
1 -111 33 -138 70 -28 39 -37 113 -21 162 28 86 136 131 224 94z"/>
<path d="M3249 4437 c-175 -50 -283 -219 -249 -391 15 -78 41 -128 95 -181
167 -168 442 -121 547 93 29 59 33 76 33 147 -1 93 -28 165 -90 234 -77 85
-227 129 -336 98z m178 -189 c49 -29 76 -80 76 -143 0 -66 -27 -112 -83 -144
-113 -63 -252 15 -252 144 0 136 141 214 259 143z"/>
<path d="M4140 4441 c-127 -41 -215 -140 -241 -269 -42 -203 124 -402 336
-402 218 0 384 211 331 419 -26 102 -88 181 -181 229 -40 20 -67 26 -135 28
-47 2 -96 0 -110 -5z m157 -172 c64 -24 105 -87 105 -160 0 -107 -98 -185
-207 -165 -49 9 -110 70 -124 124 -36 131 98 250 226 201z"/>
<path d="M742 3234 c-46 -16 -227 -120 -323 -185 -108 -73 -220 -200 -292
-329 -79 -144 -117 -294 -117 -464 0 -160 28 -281 98 -421 45 -91 773 -1352
825 -1430 134 -199 366 -349 615 -396 105 -20 338 -7 445 25 125 37 381 170
467 243 70 58 102 200 66 287 -30 72 -280 493 -314 528 -56 59 -112 81 -197
76 -62 -3 -83 -9 -166 -52 -82 -43 -102 -50 -154 -49 -75 0 -149 35 -192 90
-33 43 -456 774 -472 816 -20 52 -13 138 15 195 27 54 65 89 167 149 95 57
142 154 127 266 -7 48 -30 95 -147 298 -76 133 -155 261 -176 285 -65 74 -178
102 -275 68z m131 -178 c9 -7 78 -119 153 -247 169 -289 170 -297 58 -361
-113 -63 -187 -149 -224 -259 -29 -85 -25 -219 9 -294 12 -27 122 -223 244
-435 245 -425 283 -476 389 -528 134 -65 264 -61 411 14 95 48 133 54 165 27
11 -10 79 -121 151 -246 148 -258 154 -278 98 -323 -61 -48 -281 -164 -362
-191 -96 -31 -282 -43 -390 -24 -195 34 -381 155 -494 321 -52 75 -797 1368
-827 1434 -92 202 -86 459 17 660 91 179 180 264 423 403 112 64 147 73 179
49z"/>
<path d="M4634 2741 c-37 -22 -59 -76 -49 -120 13 -60 91 -101 152 -80 85 28
98 147 23 206 -23 19 -91 15 -126 -6z"/>
<path d="M4650 2340 c-120 -28 -114 -201 7 -217 60 -8 88 2 112 41 60 96 -11
201 -119 176z"/>
<path d="M4510 1902 c-67 -33 -74 -127 -14 -183 20 -19 37 -24 76 -24 43 0 53
4 79 33 22 24 29 42 29 73 0 98 -80 146 -170 101z"/>
<path d="M4313 1511 c-40 -25 -53 -49 -53 -101 0 -34 6 -48 34 -76 27 -27 42
-34 73 -34 53 0 85 19 105 61 48 102 -65 209 -159 150z"/>
<path d="M4065 1183 c-31 -8 -73 -52 -80 -84 -4 -16 -1 -45 5 -64 16 -49 53
-75 107 -75 38 0 50 5 79 34 37 37 45 82 22 130 -19 43 -83 71 -133 59z"/>
<path d="M3698 894 c-15 -8 -35 -28 -43 -44 -55 -106 61 -212 163 -150 124 76
8 264 -120 194z"/>
<path d="M3340 707 c-74 -25 -92 -135 -30 -189 65 -59 173 -22 186 63 7 41
-15 97 -44 115 -30 19 -75 24 -112 11z"/>
<path d="M2884 566 c-107 -107 47 -264 158 -161 73 68 18 195 -84 195 -32 0
-47 -7 -74 -34z"/>
</g>
</svg>
