<?xml version="1.0" standalone="no"?>
<!DOCTYPE svg PUBLIC "-//W3C//DTD SVG 20010904//EN"
 "http://www.w3.org/TR/2001/REC-SVG-20010904/DTD/svg10.dtd">
<svg version="1.0" xmlns="http://www.w3.org/2000/svg"
 width="512.000000pt" height="512.000000pt" viewBox="0 0 512.000000 512.000000"
 preserveAspectRatio="xMidYMid meet">
<metadata>
Created by potrace 1.16, written by Peter Selinger 2001-2019
</metadata>
<g transform="translate(0.000000,512.000000) scale(0.100000,-0.100000)"
fill="#000000" stroke="none">
<path d="M3305 4266 c-101 -44 -135 -190 -63 -272 42 -48 78 -64 141 -64 150
0 228 174 130 291 -47 56 -138 76 -208 45z"/>
<path d="M3582 3730 c-108 -26 -188 -158 -147 -244 57 -120 261 -51 295 100
21 94 -53 167 -148 144z"/>
<path d="M4210 3373 c-97 -37 -140 -165 -86 -257 67 -114 238 -114 304 -1 18
33 22 51 20 101 -4 72 -35 121 -91 148 -34 15 -116 21 -147 9z"/>
<path d="M1535 2477 c-103 -58 -123 -189 -41 -270 21 -21 108 -67 247 -131
118 -54 218 -102 223 -107 5 -5 83 -165 172 -356 l162 -348 191 -3 c105 -1
191 -1 191 2 0 2 -94 206 -208 453 -190 408 -213 453 -258 498 -44 44 -81 64
-305 168 -279 128 -303 134 -374 94z"/>
</g>
</svg>
